<svg width="220" height="270" viewBox="0 0 220 270" fill="none" xmlns="http://www.w3.org/2000/svg">
<path d="M0 16C0 7.16344 7.16344 0 16 0H204C212.837 0 220 7.16344 220 16V40H0V16Z" fill="#F1EFE8"/>
<path d="M24 26C27.3137 26 30 23.3137 30 20C30 16.6863 27.3137 14 24 14C20.6863 14 18 16.6863 18 20C18 23.3137 20.6863 26 24 26Z" fill="#D3D1C7"/>
<path d="M44 26C47.3137 26 50 23.3137 50 20C50 16.6863 47.3137 14 44 14C40.6863 14 38 16.6863 38 20C38 23.3137 40.6863 26 44 26Z" fill="#D3D1C7"/>
<path d="M64 26C67.3137 26 70 23.3137 70 20C70 16.6863 67.3137 14 64 14C60.6863 14 58 16.6863 58 20C58 23.3137 60.6863 26 64 26Z" fill="#D3D1C7"/>
<rect x="0.5" y="0.5" width="219" height="269" rx="15.5" stroke="#D3D1C7"/>
<path d="M155 57H21C19.3431 57 18 58.3431 18 60V61C18 62.6569 19.3431 64 21 64H155C156.657 64 158 62.6569 158 61V60C158 58.3431 156.657 57 155 57Z" fill="#C0DD97"/>
<path d="M175 73H21C19.3431 73 18 74.3431 18 76V77C18 78.6569 19.3431 80 21 80H175C176.657 80 178 78.6569 178 77V76C178 74.3431 176.657 73 175 73Z" fill="#C0DD97"/>
<path opacity="0.9" d="M165 89H21C19.3431 89 18 90.3431 18 92V93C18 94.6569 19.3431 96 21 96H165C166.657 96 168 94.6569 168 93V92C168 90.3431 166.657 89 165 89Z" fill="#FAC775"/>
<path d="M135 105H21C19.3431 105 18 106.343 18 108V109C18 110.657 19.3431 112 21 112H135C136.657 112 138 110.657 138 109V108C138 106.343 136.657 105 135 105Z" fill="#C0DD97"/>
<path opacity="0.9" d="M170 121H21C19.3431 121 18 122.343 18 124V125C18 126.657 19.3431 128 21 128H170C171.657 128 173 126.657 173 125V124C173 122.343 171.657 121 170 121Z" fill="#FAC775"/>
<path d="M145 137H21C19.3431 137 18 138.343 18 140V141C18 142.657 19.3431 144 21 144H145C146.657 144 148 142.657 148 141V140C148 138.343 146.657 137 145 137Z" fill="#C0DD97"/>
<path d="M160 153H21C19.3431 153 18 154.343 18 156V157C18 158.657 19.3431 160 21 160H160C161.657 160 163 158.657 163 157V156C163 154.343 161.657 153 160 153Z" fill="#C0DD97"/>
<path opacity="0.9" d="M165 169H21C19.3431 169 18 170.343 18 172V173C18 174.657 19.3431 176 21 176H165C166.657 176 168 174.657 168 173V172C168 170.343 166.657 169 165 169Z" fill="#FAC775"/>
<path d="M125 185H21C19.3431 185 18 186.343 18 188V189C18 190.657 19.3431 192 21 192H125C126.657 192 128 190.657 128 189V188C128 186.343 126.657 185 125 185Z" fill="#C0DD97"/>
<path d="M125 233H21C19.3431 233 18 234.343 18 236V237C18 238.657 19.3431 240 21 240H125C126.657 240 128 238.657 128 237V236C128 234.343 126.657 233 125 233Z" fill="#C0DD97"/>
<path d="M155 201H21C19.3431 201 18 202.343 18 204V205C18 206.657 19.3431 208 21 208H155C156.657 208 158 206.657 158 205V204C158 202.343 156.657 201 155 201Z" fill="#C0DD97"/>
<path d="M115 217H21C19.3431 217 18 218.343 18 220V221C18 222.657 19.3431 224 21 224H115C116.657 224 118 222.657 118 221V220C118 218.343 116.657 217 115 217Z" fill="#C0DD97"/>
<path opacity="0.8" d="M103.652 114.12C110.574 114.12 116.185 119.73 116.185 126.652C116.184 133.574 110.574 139.184 103.652 139.185C96.7304 139.185 91.1202 133.574 91.1201 126.652C91.1201 119.73 96.7304 114.12 103.652 114.12ZM103.652 117.388C98.5361 117.388 94.3867 121.536 94.3867 126.652C94.3868 131.769 98.5361 135.917 103.652 135.917C108.768 135.917 112.917 131.768 112.917 126.652C112.917 121.536 108.768 117.388 103.652 117.388Z" fill="#FFC46C"/>
<circle cx="115" cy="139" r="35" fill="white"/>
<path d="M149.338 145H80.6615C79.7439 145 79 148.07 79 151.857V154.143C79 157.93 79.7439 161 80.6615 161H149.338C150.256 161 151 157.93 151 154.143V151.857C151 148.07 150.256 145 149.338 145Z" fill="#C0DD97"/>
<path opacity="0.9" d="M149.587 118H79.4129C78.6326 118 78 121.07 78 124.857V127.143C78 130.93 78.6326 134 79.4129 134H149.587C150.367 134 151 130.93 151 127.143V124.857C151 121.07 150.367 118 149.587 118Z" fill="#FAC775"/>
<path d="M148 138.551C148 119.365 133.737 105 114.551 105C95.3649 105 82 119.365 82 138.551C82 157.737 95.3649 172.5 114.551 172.5C133.737 172.5 148 157.737 148 138.551ZM156.102 138.551C156.102 161.499 137.499 180.102 114.551 180.102C91.603 180.102 73 161.499 73 138.551C73 115.603 91.603 97 114.551 97C137.499 97 156.102 115.603 156.102 138.551Z" fill="#FFC46C"/>
<rect x="143.074" y="160.583" width="42.3967" height="9.17944" rx="4.58972" transform="rotate(45 143.074 160.583)" fill="#FFC46C"/>
</svg>
