<svg width="94" height="94" viewBox="0 0 94 94" fill="none" xmlns="http://www.w3.org/2000/svg">
<path opacity="0.8" d="M41.5508 0C64.4987 0 83.1015 18.6029 83.1016 41.5508C83.1016 51.7989 79.3895 61.1787 73.2393 68.4238L93.002 88.1865C94.332 89.5166 94.332 91.6729 93.002 93.0029C91.672 94.3324 89.5164 94.3325 88.1865 93.0029L68.4238 73.2393C61.1787 79.3895 51.7989 83.1016 41.5508 83.1016C18.6029 83.1015 0 64.4987 0 41.5508C3.91709e-05 18.6029 18.6029 3.9176e-05 41.5508 0ZM41.5508 6.81152C22.3649 6.81156 6.81156 22.3649 6.81152 41.5508C6.81152 60.7367 22.3649 76.29 41.5508 76.29C60.7367 76.29 76.29 60.7367 76.29 41.5508C76.29 22.3649 60.7367 6.81152 41.5508 6.81152ZM30.6523 18.1201C37.5742 18.1203 43.1846 23.7304 43.1846 30.6523C43.1845 37.5742 37.5742 43.1844 30.6523 43.1846C23.7304 43.1846 18.1202 37.5743 18.1201 30.6523C18.1201 23.7304 23.7304 18.1201 30.6523 18.1201ZM30.6523 21.3877C25.5361 21.3877 21.3877 25.5361 21.3877 30.6523C21.3878 35.7685 25.5361 39.917 30.6523 39.917C35.7684 39.9168 39.9169 35.7684 39.917 30.6523C39.917 25.5362 35.7685 21.3878 30.6523 21.3877Z" fill="#FAC775"/>
</svg>
